<svg xmlns="http://www.w3.org/2000/svg" version="1.1" xmlns:xlink="http://www.w3.org/1999/xlink" xmlns:svgjs="http://svgjs.dev/svgjs" width="1500" height="935" viewBox="0 0 1500 935"><g transform="matrix(1,0,0,1,-0.9090909090909918,0.3785425101214628)"><svg viewBox="0 0 396 247" data-background-color="#c8ad7f" preserveAspectRatio="xMidYMid meet" height="935" width="1500" xmlns="http://www.w3.org/2000/svg" xmlns:xlink="http://www.w3.org/1999/xlink"><g id="tight-bounds" transform="matrix(1,0,0,1,0.2400000000000091,-0.09999999999999432)"><svg viewBox="0 0 395.52 247.2" height="247.2" width="395.52"><g><svg></svg></g><g><svg viewBox="0 0 395.52 247.2" height="247.2" width="395.52"><g transform="matrix(1,0,0,1,75.54432,96.54462388948927)"><svg viewBox="0 0 244.43135999999998 54.11075222102144" height="54.11075222102144" width="244.43135999999998"><g><svg viewBox="0 0 244.43135999999998 54.11075222102144" height="54.11075222102144" width="244.43135999999998"><g><svg viewBox="0 0 244.43135999999998 54.11075222102144" height="54.11075222102144" width="244.43135999999998"><g id="textblocktransform"><svg viewBox="0 0 244.43135999999998 54.11075222102144" height="54.11075222102144" width="244.43135999999998" id="textblock"><g><svg viewBox="0 0 244.43135999999998 34.707249941207905" height="34.707249941207905" width="244.43135999999998"><g transform="matrix(1,0,0,1,0,0)"><svg width="244.43135999999998" viewBox="1.6 -29.6 280.62 39.85" height="34.707249941207905" data-palette-color="#000000"><path d="M1.7-18.65L1.7-18.65Q1.6-19.3 1.6-19.45L1.6-19.45Q2.3-23.2 8.95-26.6L8.95-26.6Q14.2-29.05 21.35-29.05L21.35-29.05Q25.75-29.05 30.05-27.85L30.05-27.85Q32.95-26.85 34.45-25 35.95-23.15 35.95-21.25L35.95-21.25Q35.95-18.35 33.65-16.13 31.35-13.9 28.5-12.7L28.5-12.7Q22.15-9.95 14-9.65L14-9.65Q14.65-8.85 16.1-7.03 17.55-5.2 18.3-4.3 19.05-3.4 20.48-1.78 21.9-0.15 22.88 0.73 23.85 1.6 25.35 2.83 26.85 4.05 28.2 4.75L28.2 4.75Q32.9 7.25 36.4 7.25L36.4 7.25 38.1 7.1Q39.8 6.8 40.8 5.73 41.8 4.65 41.8 3.35L41.8 3.35Q41.8 2.85 41.68 2.27 41.55 1.7 42 1.7L42 1.7Q42.5 1.75 42.68 2.43 42.85 3.1 42.85 4.1 42.85 5.1 42.35 6.4L42.35 6.4Q41.8 8.2 39.3 9.15L39.3 9.15Q37.7 9.75 36.3 9.75L36.3 9.75Q32.1 9.75 27.8 7.4L27.8 7.4Q24.95 5.8 22.68 3.43 20.4 1.05 18.88-0.85 17.35-2.75 15.48-5.58 13.6-8.4 12.85-9.35L12.85-9.35 12.5-9.4Q8.7-2.4 8.7-0.95L8.7-0.95Q8.7-0.2 9.35-0.2 10-0.2 11.1-1.58 12.2-2.95 12.6-2.9L12.6-2.9Q12.9-2.6 11.95-1.6L11.95-1.6Q11.85-1.5 11.6-1.07 11.35-0.65 11.18-0.4 11-0.15 10.7 0.25 10.4 0.65 10.15 0.9 9.9 1.15 9.6 1.4L9.6 1.4Q9 1.9 8.55 1.9 8.1 1.9 7.3 1.73 6.5 1.55 6.5 1.05L6.5 1.05Q6.5-1.2 10.6-9.4L10.6-9.4Q8.95-9.55 8.95-10.6L8.95-10.6Q8.95-10.8 9-11.1L9-11.1Q9.35-11.95 10.28-11.95 11.2-11.95 11.75-11.5L11.75-11.5Q12.15-12.3 12.7-13.3L12.7-13.3Q14.65-16.8 14.65-17.75L14.65-17.75Q14.65-18 14.6-18.25L14.6-18.25Q14.8-19.65 17.03-21.93 19.25-24.2 21.05-24.2L21.05-24.2Q21.65-24.2 22.65-23.75 23.65-23.3 23.85-22.5L23.85-22.5Q23.9-22.15 23.88-22.08 23.85-22 23.6-22.1 23.35-22.2 23.3-22.2L23.3-22.2Q19.8-22.2 13.3-10.85L13.3-10.85Q13.9-10.6 14.48-10.6 15.05-10.6 15.45-10.65L15.45-10.65Q20.55-11.2 25.43-13.05 30.3-14.9 33-17.7L33-17.7Q34.75-19.4 34.75-21.3L34.75-21.3Q34.75-26.9 23.3-26.9L23.3-26.9Q16.75-26.9 10.8-24.9L10.8-24.9Q7.7-23.8 5.53-21.95 3.35-20.1 2.95-17.75L2.95-17.75Q2.9-17.5 2.9-17.1 2.9-16.7 3.23-16.13 3.55-15.55 4-15.25 4.45-14.95 5.28-14.55 6.1-14.15 6.38-13.95 6.65-13.75 6.5-13.53 6.35-13.3 5.85-13.4L5.85-13.4Q4.3-13.65 2.95-14.95 1.6-16.25 1.6-17.75L1.6-17.75Q1.6-18.2 1.7-18.65ZM40.5-14.55L40.5-14.55Q43.2-14.55 43.2-11.95L43.2-11.95Q43.2-10.6 42.45-9.75L42.45-9.75Q41.2-7.9 38.4-6.53 35.6-5.15 33.65-5L33.65-5Q32.95-4.95 32.9-5.4L32.9-5.4Q32.85-5.6 33.02-5.65 33.2-5.7 33.3-5.7L33.3-5.7Q34.45-5.8 36.25-6.8L36.25-6.8Q39.6-8.6 41.15-10.5L41.15-10.5Q41.8-11.4 41.8-12.23 41.8-13.05 41-13.05L41-13.05Q40.35-13.05 39.25-12.5L39.25-12.5Q36.9-11.4 34.3-8.68 31.7-5.95 30.9-3.35L30.9-3.35Q30.65-2.55 30.65-1.78 30.65-1 31.3-0.3 31.95 0.4 33.3 0.4L33.3 0.4Q34.8 0.4 36.75-0.4L36.75-0.4Q42.4-2.7 45.45-7.35L45.45-7.35Q45.75-7.75 46-7.5L46-7.5Q46.2-7.4 46.2-7.25 46.2-7.1 46.05-6.9L46.05-6.9Q44.55-4.4 42.25-2.45L42.25-2.45Q37.8 1.35 33.6 1.35L33.6 1.35Q30 1.35 28.55-0.8L28.55-0.8Q28-1.65 28-2.85 28-4.05 28.65-5.7L28.65-5.7Q29.9-8.55 34-11.55 38.1-14.55 40.5-14.55ZM62.25-25.5L62.25-25.5Q62.85-26.6 62.85-27.2L62.85-27.2Q62.85-28.25 62-28.25L62-28.25Q61.3-28.25 60.25-27.45L60.25-27.45Q56.25-24.35 52.5-17.65L52.5-17.65Q49.5-12.25 48.1-8.4L48.1-8.4Q51.55-10.75 55.82-16.05 60.09-21.35 62.25-25.5ZM47.35-6.4L47.35-6.4Q46.75-4.7 46.7-4.13 46.65-3.55 46.65-2.58 46.65-1.6 47.15-0.8L47.15-0.8Q48 0.55 50-0.6L50-0.6Q51.5-1.4 53.8-3.53 56.1-5.65 57.35-7.4L57.35-7.4Q57.45-7.55 57.65-7.55L57.65-7.55Q58.1-7.55 57.9-6.9L57.9-6.9Q57.15-5.55 55.12-3.45 53.1-1.35 51.45-0.13 49.8 1.1 48.15 1.1L48.15 1.1Q44.35 1.1 44.35-2.6L44.35-2.6Q44.35-2.75 44.35-2.9L44.35-2.9Q44.55-6.4 47.9-13.48 51.25-20.55 53.95-24.15L53.95-24.15 55.5-26.1Q56.05-26.75 57.1-27.7L57.1-27.7Q59.09-29.6 61.22-29.6 63.35-29.6 64.09-28.3L64.09-28.3Q64.34-27.85 64.34-27 64.34-26.15 63.6-24.6L63.6-24.6Q58.45-15.65 47.35-6.4ZM59.14 0.55L59.14 0.55Q58.34 0.55 57.42 0.08 56.49-0.4 55.84-1.28 55.19-2.15 55.19-3.15 55.19-4.15 55.64-5.05L55.64-5.05Q56.64-7.15 58.87-9.13 61.09-11.1 63.49-12.5 65.89-13.9 67.29-14.25 68.69-14.6 70.02-14.6 71.34-14.6 72.29-13.93 73.24-13.25 73.24-12.5L73.24-12.5Q73.24-12.25 73.19-12.2 73.14-12.15 72.94-12.25L72.94-12.25Q72.34-13.2 70.47-13.2 68.59-13.2 66.22-11.98 63.84-10.75 61.74-8.9L61.74-8.9Q59.99-7.25 58.67-5.18 57.34-3.1 57.34-2.15L57.34-2.15Q57.34-0.3 58.39-0.3 59.44-0.3 61.59-2L61.59-2Q65.14-5 66.44-6.4L66.44-6.4Q71.04-11.35 71.39-11.35L71.39-11.35Q71.99-11.35 72.84-11 73.69-10.65 73.39-10.15L73.39-10.15Q70.84-6.55 70.39-2.9L70.39-2.9Q70.34-2.45 70.34-1.75 70.34-1.05 70.74-0.6L70.74-0.6Q71.49 0.2 72.79-0.5 74.09-1.2 76.42-3.3 78.74-5.4 80.14-7.4L80.14-7.4Q80.34-7.65 80.59-7.53 80.84-7.4 80.84-7.3L80.84-7.3Q80.84-6.55 78.47-4.03 76.09-1.5 74.84-0.6L74.84-0.6Q72.49 1.15 70.49 1.15L70.49 1.15Q68.59 1.15 67.94-0.75L67.94-0.75Q67.79-1.35 67.79-2.1L67.79-2.1Q67.79-4.35 68.74-6.85L68.74-6.85Q68.54-6.75 66.89-4.85 65.24-2.95 63.07-1.2 60.89 0.55 59.14 0.55ZM98.84-13.2L98.84-13.2Q98.84-12.6 97.69-12.6L97.69-12.6Q95.09-11.6 92.94-9.75L92.94-9.75 89.34-6.95Q89.34-5.5 91.19-2.15L91.19-2.15Q92.04-0.5 93.37-0.5 94.69-0.5 96.49-2.35L96.49-2.35Q97.34-3.25 100.59-7.4L100.59-7.4Q100.84-7.7 101.07-7.55 101.29-7.4 101.29-7.25 101.29-7.1 101.19-6.9L101.19-6.9Q98.89-3.4 96.59-1.2L96.59-1.2Q94.24 0.95 92.24 0.95L92.24 0.95Q91.84 0.95 91.44 0.85L91.44 0.85Q88.94 0.3 87.19-4.95L87.19-4.95Q76.99 5.4 76.79 9.65L76.79 9.65Q76.79 10.25 76.44 10.25L76.44 10.25 76.19 10.15Q75.99 9.95 75.99 9.65L75.99 9.65Q75.99 6.95 78.64 3.13 81.29-0.7 83.94-3.5 86.59-6.3 86.59-6.45L86.59-6.45Q86.59-7.65 85.89-8.88 85.19-10.1 84.74-10.28 84.29-10.45 83.79-10.15L83.79-10.15Q82.99-9.65 82.17-8.58 81.34-7.5 81.22-7.35 81.09-7.2 80.89-6.95 80.69-6.7 80.44-6.43 80.19-6.15 79.92-6.18 79.64-6.2 79.64-6.45 79.64-6.7 79.84-6.98 80.04-7.25 81.02-8.55 81.99-9.85 82.67-10.73 83.34-11.6 84.27-12.4 85.19-13.2 85.89-13.2 86.59-13.2 87.19-12.7 87.79-12.2 87.99-11.7 88.19-11.2 88.57-9.93 88.94-8.65 89.09-8.2L89.09-8.2Q92.84-11.9 96.59-14.25L96.59-14.25Q96.99-14.4 97.34-14.4L97.34-14.4 98.09-14.25Q98.84-13.9 98.84-13.2ZM132.84 1.25L132.84 1.25Q131.29 1.25 130.59-0.13 129.89-1.5 129.89-3.63 129.89-5.75 130.79-9.45L130.79-9.45Q129.04-9.6 124.84-10.15L124.84-10.15Q117.89-1.55 113.29 1.8L113.29 1.8Q109.34 4.75 105.09 4.75L105.09 4.75Q102.39 4.75 100.46 3.4 98.54 2.05 98.54-0.6L98.54-0.6Q98.54-1.1 98.79-1.53 99.04-1.95 99.29-1.75 99.54-1.55 99.54-0.6L99.54-0.6Q99.54 1.1 100.86 1.95 102.19 2.8 104.09 2.8L104.09 2.8Q108.19 2.8 112.16 0.13 116.14-2.55 122.99-10.35L122.99-10.35Q115.64-11.25 113.29-11.25L113.29-11.25Q106.94-11.25 105.44-7.1L105.44-7.1Q105.24-6.55 105.24-6.08 105.24-5.6 105.44-5.23 105.64-4.85 105.51-4.63 105.39-4.4 105.09-4.42 104.79-4.45 104.59-4.75L104.59-4.75Q104.04-5.7 104.04-6.6L104.04-6.6Q104.04-9.7 105.16-11.18 106.29-12.65 107.79-13.05L107.79-13.05Q109.59-13.55 111.99-13.55 114.39-13.55 124.09-11.65L124.09-11.65Q126.79-14.75 132.29-21.63 137.79-28.5 137.79-28.6L137.79-28.6 137.84-28.6Q137.89-28.65 138.09-28.75L138.09-28.75Q139.29-29.45 140.69-29.45L140.69-29.45Q141.19-29.45 141.19-28.95L141.19-28.95Q141.19-28.9 141.14-28.83 141.09-28.75 141.04-28.63 140.99-28.5 140.94-28.4L140.94-28.4Q136.14-20.45 133.49-10.5L133.49-10.5 133.34-10.15 134.59-10.1Q134.99-10.05 136.01-10.05 137.04-10.05 138.19-10.53 139.34-11 139.66-11.55 139.99-12.1 140.24-11.8 140.49-11.5 140.29-11.15L140.29-11.15Q139.74-10.15 138.34-9.7L138.34-9.7Q137.14-9.2 135.96-9.2 134.79-9.2 134.44-9.2L134.44-9.2 133.09-9.25Q132.14-4.9 132.14-2.33 132.14 0.25 133.54 0.25L133.54 0.25Q134.89 0.25 137.74-1.9 140.59-4.05 143.09-7.45L143.09-7.45Q143.24-7.65 143.49-7.55 143.74-7.45 143.74-7.3 143.74-7.15 143.66-6.93 143.59-6.7 142.89-5.8L142.89-5.8Q140.79-3 137.74-0.5L137.74-0.5Q135.54 1.25 132.84 1.25ZM135.59-23.9L135.59-23.9Q135.64-24 135.71-24.18 135.79-24.35 135.84-24.45L135.84-24.45Q129.59-15.9 125.79-11.25L125.79-11.25 131.04-10.4Q132.44-15.85 135.59-23.9ZM149.03 1.25L149.03 1.25Q146.49 1.25 146.49-1.83 146.49-4.9 150.88-9.4L150.88-9.4Q151.24-9.75 151.38-9.95L151.38-9.95 151.74-10.45Q152.44-11.4 152.38-11.65L152.38-11.65 152.24-12.1Q152.03-12.7 150.59-12.98 149.13-13.25 148.24-13.25L148.24-13.25Q143.74-6.9 143.03-6 142.34-5.1 142.09-5.25 141.84-5.4 141.84-5.6 141.84-5.8 142.13-6.2L142.13-6.2Q144.84-9.5 146.78-13.25L146.78-13.25Q146.19-13.35 145.88-13.68 145.59-14 145.84-14.78 146.09-15.55 147.36-16.85 148.63-18.15 149.59-18.6 150.53-19.05 150.78-19.15 151.03-19.25 151.34-19.25L151.34-19.25Q151.94-19.25 150.94-17.45L150.94-17.45 148.99-14.35Q151.24-14.2 152.84-14.2L152.84-14.2 154.59-14.25Q155.44-14.25 155.84-14.03 156.24-13.8 156.03-13.25L156.03-13.25Q155.69-12.3 154.28-10.7L154.28-10.7Q151.28-7.2 149.78-3.25L149.78-3.25Q149.44-2.3 149.44-1.6L149.44-1.6Q149.44-0.15 150.49-0.15L150.49-0.15Q150.84-0.15 151.81-0.7 152.78-1.25 155.09-3.33 157.38-5.4 158.78-7.4L158.78-7.4Q158.99-7.65 159.26-7.53 159.53-7.4 159.53-7.28 159.53-7.15 159.44-7L159.44-7Q158.69-5.65 156.74-3.55 154.78-1.45 152.94-0.15L152.94-0.15Q151.13 1.25 149.03 1.25ZM165.53-13.95L166.18-14Q170.03-14.35 170.86-14.35 171.68-14.35 171.68-14.1L171.68-14.1Q171.68-13.8 170.51-13.48 169.33-13.15 164.78-12.65L164.78-12.65Q164.53-12.2 164.18-11.6L164.18-11.6Q163.43-10.4 163.38-10.15L163.38-10.15Q160.53-4.45 160.38-2.9L160.38-2.9Q160.33-2.45 160.33-1.75 160.33-1.05 160.73-0.6L160.73-0.6Q161.43 0.2 162.73-0.5 164.03-1.2 166.36-3.3 168.68-5.4 170.13-7.4L170.13-7.4Q170.33-7.65 170.63-7.5L170.63-7.5Q171.38-7.15 168.03-3.55L168.03-3.55Q164.83-0.1 162.68 0.7L162.68 0.7Q161.43 1.15 160.58 1.15L160.58 1.15Q158.58 1.15 157.93-0.75L157.93-0.75Q157.83-1.1 157.83-1.6L157.83-1.6Q157.83-3.35 159.43-6.9L159.43-6.9Q159.18-6.35 157.48-4.4L157.48-4.4Q157.03-3.9 156.78-4.4L156.78-4.4Q156.73-4.5 156.73-4.67 156.73-4.85 156.93-5.1L156.93-5.1Q159.38-8.15 160.78-10.25L160.78-10.25Q160.78-10.3 161.88-12.35L161.88-12.35Q161.38-12.25 160.86-12.25 160.33-12.25 160.08-12.58 159.83-12.9 160.03-13.35L160.03-13.35Q160.38-14.15 162.68-14.25L162.68-14.25Q162.73-14.35 162.88-14.35L162.88-14.35 165.38-19Q165.58-19.4 165.83-19.83 166.08-20.25 166.21-20.48 166.33-20.7 166.48-20.95 166.63-21.2 166.73-21.3 166.83-21.4 166.93-21.5L166.93-21.5Q167.13-21.8 168.11-21.8 169.08-21.8 169.43-21.25L169.43-21.25Q169.58-21.05 169.58-20.58 169.58-20.1 169.23-19.53 168.88-18.95 168.48-18.7 168.08-18.45 167.93-18.15L167.93-18.15 165.53-13.95ZM207.93-10.95L207.93-10.95 195.53-12.6Q187.93 4.65 180.78 6.85L180.78 6.85Q179.48 7.3 178.48 7.3L178.48 7.3Q174.73 7.3 173.88 4.15L173.88 4.15Q173.83 3.95 173.83 3.73 173.83 3.5 173.9 3.18 173.98 2.85 174.23 2.95 174.48 3.05 174.73 3.9L174.73 3.9Q175.18 5.35 176.63 5.75L176.63 5.75Q177.73 5.95 178.55 5.95 179.38 5.95 179.98 5.75L179.98 5.75Q187.28 3.45 193.63-12.85L193.63-12.85 190.98-13Q190.28-13.05 189.68-13.05L189.68-13.05Q183.33-13.05 181.88-8.95L181.88-8.95Q181.63-8.4 181.63-7.9 181.63-7.4 181.93-6.9 182.23-6.4 181.75-6.28 181.28-6.15 180.98-6.6L180.98-6.6Q180.43-7.6 180.43-8.45L180.43-8.45Q180.43-11.5 181.55-12.98 182.68-14.45 184.18-14.9L184.18-14.9Q185.98-15.4 188.18-15.4L188.18-15.4 191.23-15.1Q192.83-14.95 194.28-14.65L194.28-14.65Q195.48-17.85 197.18-23.25L197.18-23.25Q194.53-20.9 190.68-20.5L190.68-20.5Q190.18-20.45 190.15-20.85 190.13-21.25 190.73-21.35L190.73-21.35Q192.88-21.55 195.15-23.55 197.43-25.55 198.63-28.25L198.63-28.25Q198.73-28.85 200.28-28.85 201.83-28.85 201.78-28.25L201.78-28.25Q201.48-27.5 199.55-22.48 197.63-17.45 196.23-14.25L196.23-14.25Q197.53-14 200.03-13.4L200.03-13.4Q205.13-12.25 208.28-11.9L208.28-11.9Q211.18-18.05 211.9-19.78 212.63-21.5 212.63-21.95 212.63-22.4 212.48-22.65L212.48-22.65Q212.63-24.05 214.65-26.33 216.68-28.6 218.48-28.6L218.48-28.6Q219.28-28.6 220.4-28.03 221.53-27.45 221.53-26.55L221.53-26.55Q221.53-26.35 221.28-26.5 221.03-26.65 220.93-26.65L220.93-26.65Q219.68-26.65 218.03-24.88 216.38-23.1 214.78-20.3L214.78-20.3Q212.33-15.95 210.43-11.7L210.43-11.7Q214.73-11.7 216.18-13.5L216.18-13.5Q216.43-13.95 216.68-13.63 216.93-13.3 216.5-12.68 216.08-12.05 214.63-11.45 213.18-10.85 210.03-10.85L210.03-10.85Q207.68-5.3 207.68-2.15L207.68-2.15Q207.68 0.3 209.1 0.3 210.53 0.3 213.35-1.9 216.18-4.1 218.68-7.45L218.68-7.45Q218.83-7.65 219.13-7.53 219.43-7.4 219.3-7.08 219.18-6.75 218.53-5.8L218.53-5.8Q216.43-2.95 213.38-0.5L213.38-0.5Q211.13 1.25 208.48 1.25L208.48 1.25Q207.13 1.25 206.4 0.45 205.68-0.35 205.6-1.05 205.53-1.75 205.53-2.35 205.53-2.95 205.73-4.2L205.73-4.2Q206.23-7.4 207.93-10.95ZM228.33-5.5L228.33-5.5Q229.23-7.35 229.23-8.35 229.23-9.35 229-9.93 228.78-10.5 229.2-10.9 229.63-11.3 230.28-11.2L230.28-11.2Q231.28-10.95 231.28-8.95 231.28-6.95 228.93-3.7L228.93-3.7Q228.98-2.35 230.33-2.35 231.68-2.35 234.43-5.25L234.43-5.25Q235.73-6.75 236.05-7.2 236.38-7.65 236.63-7.53 236.88-7.4 236.88-7.3L236.88-7.3Q236.88-6.8 235.08-4.7L235.08-4.7Q232.23-1.2 230.03-1.2L230.03-1.2Q228.58-1.2 227.98-2.45L227.98-2.45Q226.98-1.4 226.03-0.5L226.03-0.5Q224.08 1.15 221.68 1.15L221.68 1.15Q220.33 1.15 219.43 0.5L219.43 0.5Q217.68-0.55 217.68-3.25L217.68-3.25Q217.68-6.2 219.68-9.25L219.68-9.25Q220.83-11.05 222.38-12.4L222.38-12.4Q224.83-14.55 227.03-14.55L227.03-14.55Q227.58-14.55 228.08-14.4L228.08-14.4Q229.58-13.9 229.58-12.5L229.58-12.5Q229.58-11.35 228.98-11.35L228.98-11.35Q228.73-11.45 228.73-12.1L228.73-12.1Q228.73-13 227.73-13L227.73-13Q225.98-13 223.23-9.8 220.48-6.6 219.93-3.35L219.93-3.35Q219.83-2.8 219.83-2.13 219.83-1.45 220.28-0.58 220.73 0.3 221.95 0.3 223.18 0.3 224.63-0.8 226.08-1.9 227.23-3.6L227.23-3.6 227.08-3.9Q226.88-4.7 227.28-5.2 227.68-5.7 228.33-5.5ZM242.87-13.95L243.52-14Q247.37-14.35 248.2-14.35 249.02-14.35 249.02-14.1L249.02-14.1Q249.02-13.8 247.85-13.48 246.67-13.15 242.12-12.65L242.12-12.65Q241.87-12.2 241.52-11.6L241.52-11.6Q240.77-10.4 240.72-10.15L240.72-10.15Q237.87-4.45 237.72-2.9L237.72-2.9Q237.67-2.45 237.67-1.75 237.67-1.05 238.07-0.6L238.07-0.6Q238.77 0.2 240.07-0.5 241.37-1.2 243.7-3.3 246.02-5.4 247.47-7.4L247.47-7.4Q247.67-7.65 247.97-7.5L247.97-7.5Q248.72-7.15 245.37-3.55L245.37-3.55Q242.17-0.1 240.02 0.7L240.02 0.7Q238.77 1.15 237.92 1.15L237.92 1.15Q235.92 1.15 235.27-0.75L235.27-0.75Q235.17-1.1 235.17-1.6L235.17-1.6Q235.17-3.35 236.77-6.9L236.77-6.9Q236.52-6.35 234.82-4.4L234.82-4.4Q234.37-3.9 234.12-4.4L234.12-4.4Q234.07-4.5 234.07-4.67 234.07-4.85 234.27-5.1L234.27-5.1Q236.72-8.15 238.12-10.25L238.12-10.25Q238.12-10.3 239.22-12.35L239.22-12.35Q238.72-12.25 238.2-12.25 237.67-12.25 237.42-12.58 237.17-12.9 237.37-13.35L237.37-13.35Q237.72-14.15 240.02-14.25L240.02-14.25Q240.07-14.35 240.22-14.35L240.22-14.35 242.72-19Q242.92-19.4 243.17-19.83 243.42-20.25 243.55-20.48 243.67-20.7 243.82-20.95 243.97-21.2 244.07-21.3 244.17-21.4 244.27-21.5L244.27-21.5Q244.47-21.8 245.45-21.8 246.42-21.8 246.77-21.25L246.77-21.25Q246.92-21.05 246.92-20.58 246.92-20.1 246.57-19.53 246.22-18.95 245.82-18.7 245.42-18.45 245.27-18.15L245.27-18.15 242.87-13.95ZM258.37-14.55L258.37-14.55Q261.07-14.55 261.07-11.95L261.07-11.95Q261.07-10.6 260.32-9.75L260.32-9.75Q259.07-7.9 256.27-6.53 253.47-5.15 251.52-5L251.52-5Q250.82-4.95 250.77-5.4L250.77-5.4Q250.72-5.6 250.9-5.65 251.07-5.7 251.17-5.7L251.17-5.7Q252.32-5.8 254.12-6.8L254.12-6.8Q257.47-8.6 259.02-10.5L259.02-10.5Q259.67-11.4 259.67-12.23 259.67-13.05 258.87-13.05L258.87-13.05Q258.22-13.05 257.12-12.5L257.12-12.5Q254.77-11.4 252.17-8.68 249.57-5.95 248.77-3.35L248.77-3.35Q248.52-2.55 248.52-1.78 248.52-1 249.17-0.3 249.82 0.4 251.17 0.4L251.17 0.4Q252.67 0.4 254.62-0.4L254.62-0.4Q260.27-2.7 263.32-7.35L263.32-7.35Q263.62-7.75 263.87-7.5L263.87-7.5Q264.07-7.4 264.07-7.25 264.07-7.1 263.92-6.9L263.92-6.9Q262.42-4.4 260.12-2.45L260.12-2.45Q255.67 1.35 251.47 1.35L251.47 1.35Q247.87 1.35 246.42-0.8L246.42-0.8Q245.87-1.65 245.87-2.85 245.87-4.05 246.52-5.7L246.52-5.7Q247.77-8.55 251.87-11.55 255.97-14.55 258.37-14.55ZM280.12-25.5L280.12-25.5Q280.72-26.6 280.72-27.2L280.72-27.2Q280.72-28.25 279.87-28.25L279.87-28.25Q279.17-28.25 278.12-27.45L278.12-27.45Q274.12-24.35 270.37-17.65L270.37-17.65Q267.37-12.25 265.97-8.4L265.97-8.4Q269.42-10.75 273.69-16.05 277.97-21.35 280.12-25.5ZM265.22-6.4L265.22-6.4Q264.62-4.7 264.57-4.13 264.52-3.55 264.52-2.58 264.52-1.6 265.02-0.8L265.02-0.8Q265.87 0.55 267.87-0.6L267.87-0.6Q269.37-1.4 271.67-3.53 273.97-5.65 275.22-7.4L275.22-7.4Q275.32-7.55 275.52-7.55L275.52-7.55Q275.97-7.55 275.77-6.9L275.77-6.9Q275.02-5.55 272.99-3.45 270.97-1.35 269.32-0.13 267.67 1.1 266.02 1.1L266.02 1.1Q262.22 1.1 262.22-2.6L262.22-2.6Q262.22-2.75 262.22-2.9L262.22-2.9Q262.42-6.4 265.77-13.48 269.12-20.55 271.82-24.15L271.82-24.15 273.37-26.1Q273.92-26.75 274.97-27.7L274.97-27.7Q276.97-29.6 279.09-29.6 281.22-29.6 281.97-28.3L281.97-28.3Q282.22-27.85 282.22-27 282.22-26.15 281.47-24.6L281.47-24.6Q276.32-15.65 265.22-6.4Z" opacity="1" transform="matrix(1,0,0,1,0,0)" fill="#000000" class="wordmark-text-0" data-fill-palette-color="primary" id="text-0"></path></svg></g></svg></g><g transform="matrix(1,0,0,1,100.925708544,42.9007986783285)"><svg viewBox="0 0 143.50565145599998 11.20995354269294" height="11.20995354269294" width="143.50565145599998"><g transform="matrix(1,0,0,1,0,0)"><svg width="143.50565145599998" viewBox="2.5 -37 629.13 49.15" height="11.20995354269294" data-palette-color="#000000"><path d="M7.8-31.65Q7.85-31.6 6.55-32.75L6.55-32.75Q5.65-33.55 5.2-33.9L5.2-33.9Q5.4-35.25 6.2-35.8 7-36.35 8.3-36.65L8.3-36.65Q9.65-37 11.2-37L11.2-37Q12.7-37 14.25-36.7L14.25-36.7Q18.7-35.9 22.1-34.85 25.5-33.8 28.45-31.9L28.45-31.9Q30.5-30.65 31.9-28.95L31.9-28.95Q33.95-26.3 33.95-23.55L33.95-23.55Q33.95-21.2 32.4-18.7L32.4-18.7Q26.5-9.35 20.25-3.95L20.25-3.95Q16.45-0.6 11.85 1.55L11.85 1.55Q10.15 2.4 8.3 2.4L8.3 2.4Q6.1 2.4 4.05 1.15L4.05 1.15Q3.3 0.65 2.9 0.13 2.5-0.4 2.5-1.1L2.5-1.1 2.55-1.55 2.9-4.15Q3.5-8.75 4-11L4-11 4.25-12.1Q5.75-18.6 6.5-22.58 7.25-26.55 7.6-30.75L7.6-30.75 7.8-31.65ZM14.4-32.25Q13.8-32.3 12.8-32.15L12.8-32.15 11.7-32Q12.9-31 13.45-30.25 14-29.5 14-28.65L14-28.65Q14-28.45 13.9-27.95L13.9-27.95Q13.25-25.05 12.15-20.8L12.15-20.8 10.35-13.6Q9.15-8.7 8.25-4.5L8.25-4.5Q8.1-3.95 8.08-3.28 8.05-2.6 8.05-2.3L8.05-2.3Q8.5-2.1 8.55-2.1L8.55-2.1 9.2-2.35Q16.7-6 22-12.55L22-12.55Q24.15-15.3 25.63-17.75 27.1-20.2 27.85-22.9L27.85-22.9Q28.05-23.55 28.05-24.45L28.05-24.45Q28.05-26 27.28-27.25 26.5-28.5 25.15-29.15L25.15-29.15Q20.15-31.4 14.4-32.25L14.4-32.25ZM43.65-23.3Q43.55-23 42.92-22.65 42.3-22.3 41.9-22L41.9-22 40.5-22.75Q38.45-23.85 37.7-24.5L37.7-24.5Q37.3-24.8 37.3-25.25L37.3-25.25Q37.3-25.55 37.52-25.78 37.75-26 38.2-26L38.2-26Q40.15-26 42.95-25L42.95-25Q43.25-24.95 43.5-24.33 43.75-23.7 43.65-23.3L43.65-23.3ZM39.15-14Q39.3-14.65 39.35-14.95 39.4-15.25 39.4-15.6L39.4-15.6Q39.4-16.3 39.82-16.7 40.25-17.1 41.45-17.1L41.45-17.1Q42.85-17.1 43.92-16.23 45-15.35 45.25-13.95L45.25-13.95Q45.4-13.25 45.45-12.4 45.5-11.55 45.5-11.3L45.5-11.3 46.2-2.75Q46.35-1.4 45.82-0.68 45.3 0.05 43.85 0.05L43.85 0.05Q42.6 0.05 41.72-0.65 40.85-1.35 40.65-2.45L40.65-2.45 39.35-13.05 39.15-14ZM54.7 1.1Q50.5 1.1 49.35-2.5L49.35-2.5Q49.75-2.5 50.42-2.48 51.1-2.45 51.55-2.35L51.55-2.35Q52.25-2.25 52.55-2.25L52.55-2.25Q54.8-2.25 56.3-4.25L56.3-4.25Q57.35-5.7 57.35-7.2L57.35-7.2Q57.35-8.2 56.85-9.15L56.85-9.15Q55.75-11.1 54.15-13.45L54.15-13.45Q53.1-15 52.25-16.4L52.25-16.4Q51.25-18 51.25-19.95L51.25-19.95Q51.25-21.75 52.27-23.13 53.3-24.5 55.3-24.85L55.3-24.85 56.9-25.15Q59.5-25.65 60.8-25.65L60.8-25.65Q62.95-25.65 64.6-24.65L64.6-24.65Q64.95-24.4 65.32-23.78 65.7-23.15 65.9-22.8L65.9-22.8Q65.55-22.65 64.92-22.33 64.3-22 63.85-21.95L63.85-21.95Q63.15-21.85 61.75-21.85L61.75-21.85Q60.4-21.85 59.7-21.8L59.7-21.8Q58.1-21.65 57.17-20.73 56.25-19.8 56.25-18.5L56.25-18.5Q56.25-17.5 56.85-16.45L56.85-16.45Q58.2-14.2 60.6-11.3L60.6-11.3Q62.4-9.05 62.4-6.65L62.4-6.65Q62.4-5.35 61.8-3.9L61.8-3.9Q59.75 1.1 54.7 1.1L54.7 1.1ZM84.59-5.1Q83.09-3.4 81.54-2.43 79.99-1.45 78.09-1.45L78.09-1.45Q77.69-1.45 76.99-1.55L76.99-1.55 75.99-1.5Q69.69-1.45 66.79-7.5L66.79-7.5Q66.14-8.9 66.14-10.85L66.14-10.85Q66.14-12.55 66.64-14.1 67.14-15.65 68.04-16.65L68.04-16.65 68.99-17.8Q69.69-18.7 70.09-19.05L70.09-19.05Q71.84-20.75 74.74-20.75L74.74-20.75Q76.24-20.75 77.69-20.25 79.14-19.75 80.24-18.9L80.24-18.9Q80.44-18.75 80.64-18.28 80.84-17.8 80.84-17.5L80.84-17.5Q80.84-17.1 80.24-16.63 79.64-16.15 79.14-16.2L79.14-16.2Q75.74-16.6 73.69-14.58 71.64-12.55 71.64-9.05L71.64-9.05Q71.64-6.75 72.62-5.8 73.59-4.85 75.84-4.85L75.84-4.85Q77.24-4.85 78.49-5.43 79.74-6 81.39-7.05L81.39-7.05 82.34-7.65Q82.84-7.9 83.67-7.98 84.49-8.05 84.94-8.1L84.94-8.1Q84.89-7.65 84.92-7.23 84.94-6.8 84.94-6.55L84.94-6.55Q84.94-5.45 84.59-5.1L84.59-5.1ZM100.39-3.35Q98.84-2.4 96.84-2.4L96.84-2.4Q94.64-2.4 92.62-3.53 90.59-4.65 89.39-6.75 88.19-8.85 88.39-11.55L88.39-11.55 88.64-12.75Q88.94-14.55 89.14-15.4L89.14-15.4Q89.59-17.25 90.94-18 92.29-18.75 94.54-19.2L94.54-19.2Q95.99-19.5 97.39-19.5L97.39-19.5Q101.79-19.5 104.79-16.55L104.79-16.55Q106.39-14.95 106.39-12.65L106.39-12.65Q106.39-10.4 104.74-7.8L104.74-7.8Q102.84-4.85 100.39-3.35L100.39-3.35ZM96.19-16.95Q95.39-15 94.49-12.1L94.49-12.1 93.99-10.6 94.34-10.45Q94.34-10.1 94.37-9.38 94.39-8.65 94.54-8.15L94.54-8.15Q95.09-6.6 95.79-6.25L95.79-6.25Q96.09-6.1 96.67-6.4 97.24-6.7 97.69-7.1L97.69-7.1Q98.39-7.7 99.94-9.6L99.94-9.6Q101.09-10.9 101.09-12.7L101.09-12.7Q101.09-14.25 100.22-15.5 99.34-16.75 97.79-17.2L97.79-17.2Q97.64-17.25 97.24-17.25L97.24-17.25Q96.29-17.25 96.19-16.95L96.19-16.95ZM118.04-10.95Q118.24-10.55 118.49-9.65L118.49-9.65Q119.04-7.95 119.14-7.75L119.14-7.75Q120.19-9.65 121.09-11.5L121.09-11.5Q122.54-14.5 123.34-15.7L123.34-15.7Q124.79-17.9 126.79-19.6L126.79-19.6Q127.19-20 127.74-20L127.74-20Q128.24-20 128.56-19.6 128.89-19.2 128.99-18.6L128.99-18.6Q129.04-18.4 129.04-17.95L129.04-17.95Q129.04-16.85 128.64-15.75L128.64-15.75Q127.89-13.8 124.94-6.2L124.94-6.2 122.79-0.65Q122.34 0.6 121.36 1.28 120.39 1.95 119.29 1.95L119.29 1.95Q117.64 1.95 116.39 0.55L116.39 0.55Q115.64-0.35 114.84-2.55L114.84-2.55Q112.54-9.6 110.99-14.65L110.99-14.65Q110.84-15.05 110.56-15.68 110.29-16.3 110.29-16.7L110.29-16.7Q110.29-17.4 111.04-17.95L111.04-17.95Q111.79-18.5 112.64-18.5L112.64-18.5Q113.59-18.5 114.99-17.55L114.99-17.55Q115.99-16.8 116.44-15.85 116.89-14.9 117.29-13.35L117.29-13.35Q117.69-11.75 118.04-10.95L118.04-10.95ZM142.14-7.8Q141.64-7.5 140.69-7.5L140.69-7.5Q140.34-7.5 139.84-7.55 139.34-7.6 138.99-7.55L138.99-7.55Q139.39-5.9 140.89-4.88 142.39-3.85 144.24-3.85L144.24-3.85Q145.84-3.85 147.09-4.55L147.09-4.55Q148.94-5.5 150.29-6.8L150.29-6.8Q151.24-7.75 152.09-7.75L152.09-7.75Q152.64-7.75 153.04-7.2L153.04-7.2Q153.44-6.55 153.44-5.6L153.44-5.6Q153.44-4.6 153.04-4.05L153.04-4.05Q151.74-2.05 149.66-1.3 147.59-0.55 144.84-0.55L144.84-0.55Q141.99-0.55 139.34-1.8 136.69-3.05 134.81-5.23 132.94-7.4 132.34-10.05L132.34-10.05Q131.94-11.6 131.94-13.1L131.94-13.1Q131.94-15.45 133.26-16.9 134.59-18.35 137.54-19.65L137.54-19.65Q140.24-20.8 142.54-20.8L142.54-20.8Q144.19-20.8 145.74-20.3L145.74-20.3Q150.54-18.8 150.54-16.2L150.54-16.2Q150.54-14.55 148.59-12.2L148.59-12.2Q147.64-11.1 146.34-10.25 145.04-9.4 143.81-8.72 142.59-8.05 142.14-7.8L142.14-7.8ZM144.24-17.05Q144.19-17.3 143.86-17.48 143.54-17.65 143.49-17.7L143.49-17.7Q142.14-17.8 140.74-16.93 139.34-16.05 138.41-14.7 137.49-13.35 137.49-12.1L137.49-12.1 137.54-11.7Q137.59-11.5 138.06-11.2 138.54-10.9 138.64-11L138.64-11Q142.19-13.65 143.99-15.25L143.99-15.25Q144.29-15.55 144.29-16.35L144.29-16.35Q144.29-16.85 144.24-17.05L144.24-17.05ZM162.93-21.2Q163.08-20.7 162.98-19.65L162.98-19.65 162.38-13.75Q162.63-13.95 163.13-15.18 163.63-16.4 164.08-17.18 164.53-17.95 164.78-18.2L164.78-18.2Q167.13-20.45 170.08-20.9 173.03-21.35 176.58-21.3L176.58-21.3Q176.93-21.3 177.36-21.03 177.78-20.75 177.78-20.58 177.78-20.4 177.48-20.03 177.18-19.65 176.93-19.55L176.93-19.55Q173.93-18.55 171.66-17.25 169.38-15.95 167.73-13.85L167.73-13.85Q163.83-8.9 163.23-3.65L163.23-3.65Q163.08-2.25 162.38-1.78 161.68-1.3 160.43-1.3L160.43-1.3Q159.03-1.3 157.93-2.5 156.83-3.7 156.83-5.15L156.83-5.15Q156.88-10.45 156.88-21.05L156.88-21.05Q156.88-22.5 157.53-23.08 158.18-23.65 159.88-23.65L159.88-23.65Q161.13-23.65 162.01-22.95 162.88-22.25 162.93-21.2L162.93-21.2ZM191.53-18.65Q191.18-19.05 191.05-19.5 190.93-19.95 190.83-20.75L190.83-20.75Q191.28-21.8 192.48-21.8L192.48-21.8Q193.08-21.7 193.33-21.7L193.33-21.7Q194.33-21.7 194.58-22.3 194.83-22.9 194.83-23.7 194.83-24.5 194.83-24.95L194.83-24.95 194.98-27.95Q195.03-28.95 195.1-30.43 195.18-31.9 195.28-33.85L195.28-33.85Q195.33-34.9 195.8-35.4 196.28-35.9 197.13-35.9L197.13-35.9Q197.73-35.9 198.08-35.8L198.08-35.8Q200.13-35.35 200.83-34.5 201.53-33.65 201.78-31.95L201.78-31.95Q201.83-31.6 201.68-30.5L201.68-30.5 200.78-22.7Q200.73-22.4 200.63-21.98 200.53-21.55 200.53-21.35L200.53-21.35Q200.53-20.9 201.03-20.75 201.53-20.6 202.88-20.65L202.88-20.65Q205.18-21.15 206.38-21.3L206.38-21.3Q206.63-21.35 207.18-21.35L207.18-21.35Q207.78-21.35 207.98-21.2L207.98-21.2Q208.18-21.1 208.3-20.63 208.43-20.15 208.43-19.55L208.43-19.55Q208.43-19 208.3-18.55 208.18-18.1 207.98-18.05L207.98-18.05Q206.63-17.65 204.78-17.4L204.78-17.4Q202.58-17 201.53-16.7L201.53-16.7Q200.98-16.55 200.43-15.95 199.88-15.35 199.83-14.85L199.83-14.85Q199.73-12.4 199.68-9.85L199.68-9.85Q199.63-7.9 199.83-5.95L199.83-5.95Q199.98-4.3 200.48-3.58 200.98-2.85 201.98-2.85L201.98-2.85Q202.78-2.85 204.28-3.4L204.28-3.4Q205.08-3.75 205.68-3.75L205.68-3.75Q206.63-3.75 207.03-2.7L207.03-2.7Q207.18-2.35 207.18-2L207.18-2Q207.18-1.35 206.7-0.95 206.23-0.55 205.43-0.25L205.43-0.25Q203.93 0.3 202.38 0.35L202.38 0.35Q200.28 0.35 198.43-0.68 196.58-1.7 195.5-3.55 194.43-5.4 194.58-7.8L194.58-7.8Q194.63-8.75 194.63-10.8L194.63-10.8Q194.63-14.05 194.38-17.4L194.38-17.4Q194.33-17.7 194.03-17.82 193.73-17.95 193.03-18.1L193.03-18.1Q191.88-18.3 191.53-18.65L191.53-18.65ZM217.98-26.7Q218.03-21.85 218.25-18.73 218.48-15.6 219.33-12.1L219.33-12.1Q221.43-12.85 223.18-12.85L223.18-12.85Q226.13-12.85 228.28-11.1 230.43-9.35 231.18-6.75L231.18-6.75Q231.78-4.85 231.78-1.65L231.78-1.65 231.73 2.25Q231.73 2.6 231.33 3.05 230.93 3.5 230.53 3.6L230.53 3.6Q230.38 3.65 230.08 3.65L230.08 3.65Q228.93 3.65 227.68 2.53 226.43 1.4 226.38 0.3L226.38 0.3 226.28-2.3Q226.28-3.2 226.18-4.9L226.18-4.9Q226.08-6.65 225.78-7.4L225.78-7.4Q225.48-8.25 225.03-8.7 224.58-9.15 224.03-9.15L224.03-9.15Q223.63-9.15 223.15-8.8 222.68-8.45 222.33-7.85L222.33-7.85Q221.28-6.2 219.58-1.35L219.58-1.35Q219.03 0.4 217.63 0.4L217.63 0.4Q217.48 0.4 216.98 0.3L216.98 0.3Q216.68 0.2 215.83-0.03 214.98-0.25 214.5-0.75 214.03-1.25 214.03-2.2L214.03-2.2Q214.03-11.65 212.88-17.85L212.88-17.85Q212.33-20.95 212.33-25L212.33-25 212.33-28.35 212.33-30.1Q212.33-30.8 213.08-31.3 213.83-31.8 214.78-31.8L214.78-31.8Q215.58-31.8 216.13-31.45L216.13-31.45Q217.13-30.85 217.55-29.95 217.98-29.05 217.98-27.7L217.98-27.7 217.98-26.7ZM244.17-7.8Q243.67-7.5 242.72-7.5L242.72-7.5Q242.37-7.5 241.87-7.55 241.37-7.6 241.02-7.55L241.02-7.55Q241.42-5.9 242.92-4.88 244.42-3.85 246.27-3.85L246.27-3.85Q247.87-3.85 249.12-4.55L249.12-4.55Q250.97-5.5 252.32-6.8L252.32-6.8Q253.27-7.75 254.12-7.75L254.12-7.75Q254.67-7.75 255.07-7.2L255.07-7.2Q255.47-6.55 255.47-5.6L255.47-5.6Q255.47-4.6 255.07-4.05L255.07-4.05Q253.77-2.05 251.7-1.3 249.62-0.55 246.87-0.55L246.87-0.55Q244.02-0.55 241.37-1.8 238.72-3.05 236.85-5.23 234.97-7.4 234.37-10.05L234.37-10.05Q233.97-11.6 233.97-13.1L233.97-13.1Q233.97-15.45 235.3-16.9 236.62-18.35 239.57-19.65L239.57-19.65Q242.27-20.8 244.57-20.8L244.57-20.8Q246.22-20.8 247.77-20.3L247.77-20.3Q252.57-18.8 252.57-16.2L252.57-16.2Q252.57-14.55 250.62-12.2L250.62-12.2Q249.67-11.1 248.37-10.25 247.07-9.4 245.85-8.72 244.62-8.05 244.17-7.8L244.17-7.8ZM246.27-17.05Q246.22-17.3 245.9-17.48 245.57-17.65 245.52-17.7L245.52-17.7Q244.17-17.8 242.77-16.93 241.37-16.05 240.45-14.7 239.52-13.35 239.52-12.1L239.52-12.1 239.57-11.7Q239.62-11.5 240.1-11.2 240.57-10.9 240.67-11L240.67-11Q244.22-13.65 246.02-15.25L246.02-15.25Q246.32-15.55 246.32-16.35L246.32-16.35Q246.32-16.85 246.27-17.05L246.27-17.05ZM297.47-26.8Q297.77-24.65 298.07-20.55L298.07-20.55 298.17-17.95Q298.17-10.7 300.07-5L300.07-5Q300.32-4.2 300.32-2.95L300.32-2.95Q300.32-2.25 300.22-1.05L300.22-1.05Q300.17-0.25 299.62 0.23 299.07 0.7 298.22 0.7L298.22 0.7Q298.12 0.7 297.67 0.6L297.67 0.6Q296.42 0.3 295.77-0.53 295.12-1.35 295.12-2.55L295.12-2.55Q295.12-2.95 295.17-3.15L295.17-3.15Q295.17-3.45 295.17-4L295.17-4Q295.17-4.9 295.07-5.65L295.07-5.65Q294.67-7.6 293.82-10.85L293.82-10.85Q293.52-12.2 292.57-12.2L292.57-12.2Q292.22-12.2 291.77-12.05L291.77-12.05Q290.22-11.6 289.04-11.2 287.87-10.8 286.97-10.55L286.97-10.55 284.57-9.85Q282.52-9.25 280.77-8.9L280.77-8.9Q278.92-8.5 278.07-6.85L278.07-6.85Q277.27-5.35 275.77-2.8L275.77-2.8Q274.82-1.1 273.27-1.1L273.27-1.1Q272.52-1.1 271.79-1.48 271.07-1.85 270.57-2.45L270.57-2.45Q269.82-3.3 269.82-4.1L269.82-4.1Q269.82-4.65 270.12-5.25L270.12-5.25 273.57-12.25Q279.27-23.85 280.37-26.15L280.37-26.15Q283.52-32.25 288.92-34.55L288.92-34.55Q290.07-35.1 291.27-35.1L291.27-35.1Q292.77-35.1 294.04-34.33 295.32-33.55 296.02-32.15L296.02-32.15Q297.02-30.1 297.47-26.8L297.47-26.8ZM281.32-14.15Q288.17-15.35 292.97-16.1L292.97-16.1Q292.87-20.9 292.69-23.68 292.52-26.45 291.97-29.25L291.97-29.25Q289.32-28.95 287.97-26.65L287.97-26.65Q285.62-22.95 283.47-19L283.47-19Q283.12-18.35 282.17-16.1L282.17-16.1 281.32-14.15ZM313.57-21.2Q313.72-20.7 313.62-19.65L313.62-19.65 313.02-13.75Q313.27-13.95 313.77-15.18 314.27-16.4 314.72-17.18 315.17-17.95 315.42-18.2L315.42-18.2Q317.77-20.45 320.72-20.9 323.67-21.35 327.22-21.3L327.22-21.3Q327.57-21.3 327.99-21.03 328.42-20.75 328.42-20.58 328.42-20.4 328.12-20.03 327.82-19.65 327.57-19.55L327.57-19.55Q324.57-18.55 322.29-17.25 320.02-15.95 318.37-13.85L318.37-13.85Q314.47-8.9 313.87-3.65L313.87-3.65Q313.72-2.25 313.02-1.78 312.32-1.3 311.07-1.3L311.07-1.3Q309.67-1.3 308.57-2.5 307.47-3.7 307.47-5.15L307.47-5.15Q307.52-10.45 307.52-21.05L307.52-21.05Q307.52-22.5 308.17-23.08 308.82-23.65 310.52-23.65L310.52-23.65Q311.77-23.65 312.64-22.95 313.52-22.25 313.57-21.2L313.57-21.2ZM329.66-18.65Q329.31-19.05 329.19-19.5 329.06-19.95 328.96-20.75L328.96-20.75Q329.41-21.8 330.61-21.8L330.61-21.8Q331.21-21.7 331.46-21.7L331.46-21.7Q332.46-21.7 332.71-22.3 332.96-22.9 332.96-23.7 332.96-24.5 332.96-24.95L332.96-24.95 333.11-27.95Q333.16-28.95 333.24-30.43 333.31-31.9 333.41-33.85L333.41-33.85Q333.46-34.9 333.94-35.4 334.41-35.9 335.26-35.9L335.26-35.9Q335.86-35.9 336.21-35.8L336.21-35.8Q338.26-35.35 338.96-34.5 339.66-33.65 339.91-31.95L339.91-31.95Q339.96-31.6 339.81-30.5L339.81-30.5 338.91-22.7Q338.86-22.4 338.76-21.98 338.66-21.55 338.66-21.35L338.66-21.35Q338.66-20.9 339.16-20.75 339.66-20.6 341.01-20.65L341.01-20.65Q343.31-21.15 344.51-21.3L344.51-21.3Q344.76-21.35 345.31-21.35L345.31-21.35Q345.91-21.35 346.11-21.2L346.11-21.2Q346.31-21.1 346.44-20.63 346.56-20.15 346.56-19.55L346.56-19.55Q346.56-19 346.44-18.55 346.31-18.1 346.11-18.05L346.11-18.05Q344.76-17.65 342.91-17.4L342.91-17.4Q340.71-17 339.66-16.7L339.66-16.7Q339.11-16.55 338.56-15.95 338.01-15.35 337.96-14.85L337.96-14.85Q337.86-12.4 337.81-9.85L337.81-9.85Q337.76-7.9 337.96-5.95L337.96-5.95Q338.11-4.3 338.61-3.58 339.11-2.85 340.11-2.85L340.11-2.85Q340.91-2.85 342.41-3.4L342.41-3.4Q343.21-3.75 343.81-3.75L343.81-3.75Q344.76-3.75 345.16-2.7L345.16-2.7Q345.31-2.35 345.31-2L345.31-2Q345.31-1.35 344.84-0.95 344.36-0.55 343.56-0.25L343.56-0.25Q342.06 0.3 340.51 0.35L340.51 0.35Q338.41 0.35 336.56-0.68 334.71-1.7 333.64-3.55 332.56-5.4 332.71-7.8L332.71-7.8Q332.76-8.75 332.76-10.8L332.76-10.8Q332.76-14.05 332.51-17.4L332.51-17.4Q332.46-17.7 332.16-17.82 331.86-17.95 331.16-18.1L331.16-18.1Q330.01-18.3 329.66-18.65L329.66-18.65ZM373.91-3.35Q372.36-2.4 370.36-2.4L370.36-2.4Q368.16-2.4 366.13-3.53 364.11-4.65 362.91-6.75 361.71-8.85 361.91-11.55L361.91-11.55 362.16-12.75Q362.46-14.55 362.66-15.4L362.66-15.4Q363.11-17.25 364.46-18 365.81-18.75 368.06-19.2L368.06-19.2Q369.51-19.5 370.91-19.5L370.91-19.5Q375.31-19.5 378.31-16.55L378.31-16.55Q379.91-14.95 379.91-12.65L379.91-12.65Q379.91-10.4 378.26-7.8L378.26-7.8Q376.36-4.85 373.91-3.35L373.91-3.35ZM369.71-16.95Q368.91-15 368.01-12.1L368.01-12.1 367.51-10.6 367.86-10.45Q367.86-10.1 367.88-9.38 367.91-8.65 368.06-8.15L368.06-8.15Q368.61-6.6 369.31-6.25L369.31-6.25Q369.61-6.1 370.18-6.4 370.76-6.7 371.21-7.1L371.21-7.1Q371.91-7.7 373.46-9.6L373.46-9.6Q374.61-10.9 374.61-12.7L374.61-12.7Q374.61-14.25 373.73-15.5 372.86-16.75 371.31-17.2L371.31-17.2Q371.16-17.25 370.76-17.25L370.76-17.25Q369.81-17.25 369.71-16.95L369.71-16.95ZM391.36-15.7Q391.36-13.9 391.53-13.35 391.71-12.8 392.41-12.8L392.41-12.8Q393.06-12.8 394.46-13.1L394.46-13.1 395.61-13.1Q398.46-13.1 399.11-11.85L399.11-11.85Q399.36-11.75 399.61-11.33 399.86-10.9 399.96-10.75L399.96-10.75Q399.76-10.6 399.36-10.28 398.96-9.95 398.61-9.9L398.61-9.9Q397.46-9.65 395.16-9.25L395.16-9.25Q394.71-9.2 393.56-9L393.56-9Q391.76-8.65 391.76-6.9L391.76-6.9Q391.76-6.65 391.86-5.95L391.86-5.95Q392.46-3.25 392.86-1.23 393.26 0.8 393.51 2.15L393.51 2.15 394.41 6.55Q394.91 8.95 394.91 10.25L394.91 10.25Q394.91 11.2 394.46 11.68 394.01 12.15 392.71 12.15L392.71 12.15Q391.61 12.15 391.06 11.6 390.51 11.05 390.26 9.85L390.26 9.85Q389.81 7.55 388.71 2.95L388.71 2.95 387.11-5.35Q387.01-8.25 384.26-8.25L384.26-8.25Q383.36-8.25 383.01-8.55L383.01-8.55Q382.71-8.8 382.46-9.13 382.21-9.45 382.21-9.75L382.21-9.75Q382.21-10 382.53-10.33 382.86-10.65 383.16-10.7L383.16-10.7Q384.96-10.95 385.58-11.7 386.21-12.45 386.26-14.05L386.26-14.05 386.36-17.25Q386.41-19.35 386.51-21.55 386.61-23.75 386.86-25.45L386.86-25.45Q387.06-26.9 388.11-27.58 389.16-28.25 391.01-28.25L391.01-28.25Q391.81-28.25 392.26-28.2L392.26-28.2Q393.31-28.1 394.66-27.23 396.01-26.35 396.11-25.35L396.11-25.35Q396.61-22.5 394.01-22.25L394.01-22.25Q392.31-22.6 392.01-21.85 391.71-21.1 391.61-20L391.61-20Q391.61-19.35 391.51-18.15L391.51-18.15Q391.36-16.95 391.36-15.7L391.36-15.7ZM443.8-4.8Q443.95-4.3 443.95-3.85L443.95-3.85Q443.95-3.05 443.48-2.58 443-2.1 442.2-2.1L442.2-2.1Q441.9-2.1 441.7-2.15L441.7-2.15Q439.45-2.65 438.15-3.25L438.15-3.25Q437.15-3.7 434.45-5.5L434.45-5.5Q432.4-6.85 431.05-7.6L431.05-7.6Q429.3-8.55 427.3-8.9L427.3-8.9Q426.4-9.05 423.05-9.4L423.05-9.4Q421.55-9.5 420.85-9.6L420.85-9.6 419.95-2.2 420-1.4Q420 0.4 419.58 1 419.15 1.6 417.85 1.6L417.85 1.6Q416.5 1.6 415.5 0.75 414.5-0.1 414.5-1.35L414.5-1.35Q414.5-5.15 414.9-8.1L414.9-8.1Q416.3-17.15 421.35-26.9L421.35-26.9Q424.2-32.35 430.1-35.3L430.1-35.3Q432-36.25 433.95-36.25L433.95-36.25Q435.95-36.25 437.68-35.23 439.4-34.2 440.55-32.25L440.55-32.25Q441.6-30.5 441.6-28.85L441.6-28.85Q441.6-26.55 439.8-24.2L439.8-24.2Q437.65-21.4 433.7-16.25L433.7-16.25 430.45-12.05Q430.5-12.05 430.58-11.93 430.65-11.8 430.75-11.7L430.75-11.7 431.85-11.1Q436-8.85 437.95-7.55L437.95-7.55Q439.85-6.4 442-6.4L442-6.4Q442.65-6.4 443-6.45L443-6.45Q443.15-6.2 443.4-5.7 443.65-5.2 443.8-4.8L443.8-4.8ZM425.3-14.7Q427.35-17 429.43-19.5 431.5-22 433.1-24.2L433.1-24.2Q433.75-25.1 434.2-26.13 434.65-27.15 435.03-28.2 435.4-29.25 435.55-29.7L435.55-29.7Q435.6-29.85 435.6-30.2L435.6-30.2Q435.6-30.6 435.5-31.2 435.4-31.8 435.35-32.05L435.35-32.05Q431.7-30.95 428.7-27.55 425.7-24.15 423.98-20 422.25-15.85 422.2-12.85L422.2-12.85Q423.2-12.75 423.78-13.2 424.35-13.65 425.3-14.7L425.3-14.7ZM458.35-7.8Q457.85-7.5 456.9-7.5L456.9-7.5Q456.55-7.5 456.05-7.55 455.55-7.6 455.2-7.55L455.2-7.55Q455.6-5.9 457.1-4.88 458.6-3.85 460.45-3.85L460.45-3.85Q462.05-3.85 463.3-4.55L463.3-4.55Q465.15-5.5 466.5-6.8L466.5-6.8Q467.45-7.75 468.3-7.75L468.3-7.75Q468.85-7.75 469.25-7.2L469.25-7.2Q469.65-6.55 469.65-5.6L469.65-5.6Q469.65-4.6 469.25-4.05L469.25-4.05Q467.95-2.05 465.87-1.3 463.8-0.55 461.05-0.55L461.05-0.55Q458.2-0.55 455.55-1.8 452.9-3.05 451.02-5.23 449.15-7.4 448.55-10.05L448.55-10.05Q448.15-11.6 448.15-13.1L448.15-13.1Q448.15-15.45 449.47-16.9 450.8-18.35 453.75-19.65L453.75-19.65Q456.45-20.8 458.75-20.8L458.75-20.8Q460.4-20.8 461.95-20.3L461.95-20.3Q466.75-18.8 466.75-16.2L466.75-16.2Q466.75-14.55 464.8-12.2L464.8-12.2Q463.85-11.1 462.55-10.25 461.25-9.4 460.02-8.72 458.8-8.05 458.35-7.8L458.35-7.8ZM460.45-17.05Q460.4-17.3 460.07-17.48 459.75-17.65 459.7-17.7L459.7-17.7Q458.35-17.8 456.95-16.93 455.55-16.05 454.62-14.7 453.7-13.35 453.7-12.1L453.7-12.1 453.75-11.7Q453.8-11.5 454.27-11.2 454.75-10.9 454.85-11L454.85-11Q458.4-13.65 460.2-15.25L460.2-15.25Q460.5-15.55 460.5-16.35L460.5-16.35Q460.5-16.85 460.45-17.05L460.45-17.05ZM478.4-2.3Q479.4-3.5 479.85-4.2L479.85-4.2Q480.4-4.95 481-4.95L481-4.95Q481.6-4.95 481.9-4.2L481.9-4.2Q482.6-2.2 482.6-1.05L482.6-1.05Q482.6-0.55 482.55-0.3L482.55-0.3Q482.35 0.7 481.42 1.1 480.5 1.5 479.25 1.4L479.25 1.4Q478.8 1.4 477.72 1.4 476.65 1.4 475.87 1.1 475.1 0.8 474.5 0.1L474.5 0.1Q473.2-1.45 473.2-2.9L473.2-2.9Q473.2-14.6 473.1-20.5L473.1-20.5 473.05-29.3Q473.05-31.05 472.7-32.5L472.7-32.5Q472.65-32.75 472.65-33.1L472.65-33.1Q472.65-34.95 475.15-34.95L475.15-34.95Q476.8-34.95 477.92-33.88 479.05-32.8 478.95-31.05L478.95-31.05Q478.8-28.4 478.55-23.1L478.55-23.1 478.25-17.1Q477.85-8.6 477.7-4.35L477.7-4.35Q477.65-3.85 477.75-3.25 477.85-2.65 477.9-2.5L477.9-2.5 478.4-2.3ZM501.39-2.55Q500.94-2.75 500.49-2.75L500.49-2.75Q500.04-2.75 499.72-2.53 499.39-2.3 498.99-1.85L498.99-1.85Q498.39-1.25 497.74-0.85L497.74-0.85Q497.14-0.5 495.54-0.2L495.54-0.2Q494.84-0.1 494.39-0.1L494.39-0.1Q492.29-0.1 490.02-1.03 487.74-1.95 486.79-3.25L486.79-3.25Q485.79-4.65 485.84-6.25L485.84-6.25Q485.89-8.65 487.84-11.05L487.84-11.05Q489.74-13.35 491.32-14.3 492.89-15.25 495.64-15.5L495.64-15.5Q496.24-15.5 497.37-15.7 498.49-15.9 498.49-16.25L498.49-16.25Q498.49-16.95 497.87-17.53 497.24-18.1 495.34-18.1L495.34-18.1Q494.64-18.1 493.24-18L493.24-18Q491.84-17.9 491.29-17.9L491.29-17.9Q489.59-17.9 488.84-18.45L488.84-18.45Q488.64-18.55 488.64-19.4L488.64-19.4Q488.64-20.9 489.69-21.3L489.69-21.3Q491.84-22.1 494.14-22.15L494.14-22.15Q497.04-22.15 499.52-20.88 501.99-19.6 503.14-17.7L503.14-17.7Q504.29-15.8 504.64-12.45L504.64-12.45Q505.04-8.7 505.04-2.9L505.04-2.9Q505.04-1.3 504.59-1.05L504.59-1.05Q504.19-0.8 503.84-0.8L503.84-0.8Q503.39-0.8 503.02-1.07 502.64-1.35 502.19-1.85L502.19-1.85Q501.74-2.4 501.39-2.55L501.39-2.55ZM493.49-3.15Q495.84-3.85 498.09-5.4L498.09-5.4Q498.59-5.75 498.99-6.3 499.39-6.85 499.49-7L499.49-7Q499.59-7.15 499.67-7.88 499.74-8.6 499.69-9.05L499.69-9.05Q499.64-9.2 499.52-9.85 499.39-10.5 499.14-11L499.14-11Q498.89-11.4 498.34-11.75 497.79-12.1 497.34-12.05L497.34-12.05Q496.39-12 495.29-11.35 494.19-10.7 493.24-9.6L493.24-9.6Q492.29-8.45 491.77-7.28 491.24-6.1 491.24-5.1L491.24-5.1Q491.34-3.75 491.99-3.3L491.99-3.3Q492.34-3.05 492.84-3.05L492.84-3.05Q493.24-3.05 493.49-3.15L493.49-3.15ZM521.19-4.65Q520.99-4.9 520.59-5.23 520.19-5.55 519.89-5.8L519.89-5.8 518.69-4.15 517.04-1.85Q516.49-1.1 515.67-0.73 514.84-0.35 513.94-0.35L513.94-0.35Q512.79-0.35 511.84-0.93 510.89-1.5 510.44-2.6L510.44-2.6Q510.34-2.9 510.34-3.15L510.34-3.15Q510.34-4 510.79-4.65L510.79-4.65Q513.09-7.75 515.24-10.05L515.24-10.05Q515.64-10.45 516.07-10.88 516.49-11.3 516.49-11.45L516.49-11.45Q516.49-11.55 516.12-11.98 515.74-12.4 515.39-13L515.39-13Q515.14-13.45 514.14-14.65L514.14-14.65 513.04-16.15Q512.74-16.6 512.54-17.3 512.34-18 512.24-18.3L512.24-18.3Q512.59-18.4 513.29-18.7L513.29-18.7Q514.74-19.35 515.34-19.15L515.34-19.15Q516.74-18.6 517.76-17.98 518.79-17.35 519.14-16.4L519.14-16.4Q519.29-16 519.49-15.48 519.69-14.95 519.84-14.75 519.99-14.55 520.14-14.55L520.14-14.55Q520.34-14.55 520.82-15 521.29-15.45 521.99-16.2L521.99-16.2Q522.54-16.75 523.29-17.23 524.04-17.7 524.79-18.1L524.79-18.1Q525.54-18.5 526.24-18.5L526.24-18.5Q527.04-18.5 527.74-18.05 528.44-17.6 529.19-16.75L529.19-16.75Q529.29-16.55 529.29-16.35L529.29-16.35Q529.29-16.05 529.17-15.7 529.04-15.35 528.89-15.15L528.89-15.15Q527.64-13.7 525.74-12.15L525.74-12.15Q525.54-12 525.32-11.8 525.09-11.6 524.84-11.4L524.84-11.4Q524.09-10.8 523.64-10.38 523.19-9.95 523.19-9.65L523.19-9.65Q523.19-9.3 523.94-8.4L523.94-8.4 525.14-6.8Q526.49-4.65 526.99-3.35L526.99-3.35Q527.14-3 527.14-2.45L527.14-2.45Q527.14-2.05 527.09-1.7 527.04-1.35 527.04-0.95L527.04-0.95Q526.34-1.05 525.89-1.05L525.89-1.05Q525.74-1.05 525.04-1.15 524.34-1.25 523.84-1.55L523.84-1.55Q523.19-2 522.67-2.73 522.14-3.45 522.04-3.55L522.04-3.55 521.19-4.65ZM549.54-2.55Q549.09-2.75 548.64-2.75L548.64-2.75Q548.19-2.75 547.86-2.53 547.54-2.3 547.14-1.85L547.14-1.85Q546.54-1.25 545.89-0.85L545.89-0.85Q545.29-0.5 543.69-0.2L543.69-0.2Q542.99-0.1 542.54-0.1L542.54-0.1Q540.44-0.1 538.16-1.03 535.89-1.95 534.94-3.25L534.94-3.25Q533.94-4.65 533.99-6.25L533.99-6.25Q534.04-8.65 535.99-11.05L535.99-11.05Q537.89-13.35 539.46-14.3 541.04-15.25 543.79-15.5L543.79-15.5Q544.39-15.5 545.51-15.7 546.64-15.9 546.64-16.25L546.64-16.25Q546.64-16.95 546.01-17.53 545.39-18.1 543.49-18.1L543.49-18.1Q542.79-18.1 541.39-18L541.39-18Q539.99-17.9 539.44-17.9L539.44-17.9Q537.74-17.9 536.99-18.45L536.99-18.45Q536.79-18.55 536.79-19.4L536.79-19.4Q536.79-20.9 537.84-21.3L537.84-21.3Q539.99-22.1 542.29-22.15L542.29-22.15Q545.19-22.15 547.66-20.88 550.14-19.6 551.29-17.7L551.29-17.7Q552.44-15.8 552.79-12.45L552.79-12.45Q553.19-8.7 553.19-2.9L553.19-2.9Q553.19-1.3 552.74-1.05L552.74-1.05Q552.34-0.8 551.99-0.8L551.99-0.8Q551.54-0.8 551.16-1.07 550.79-1.35 550.34-1.85L550.34-1.85Q549.89-2.4 549.54-2.55L549.54-2.55ZM541.64-3.15Q543.99-3.85 546.24-5.4L546.24-5.4Q546.74-5.75 547.14-6.3 547.54-6.85 547.64-7L547.64-7Q547.74-7.15 547.81-7.88 547.89-8.6 547.84-9.05L547.84-9.05Q547.79-9.2 547.66-9.85 547.54-10.5 547.29-11L547.29-11Q547.04-11.4 546.49-11.75 545.94-12.1 545.49-12.05L545.49-12.05Q544.54-12 543.44-11.35 542.34-10.7 541.39-9.6L541.39-9.6Q540.44-8.45 539.91-7.28 539.39-6.1 539.39-5.1L539.39-5.1Q539.49-3.75 540.14-3.3L540.14-3.3Q540.49-3.05 540.99-3.05L540.99-3.05Q541.39-3.05 541.64-3.15L541.64-3.15ZM557.69-18.65Q557.34-19.05 557.21-19.5 557.09-19.95 556.99-20.75L556.99-20.75Q557.44-21.8 558.63-21.8L558.63-21.8Q559.24-21.7 559.49-21.7L559.49-21.7Q560.49-21.7 560.74-22.3 560.99-22.9 560.99-23.7 560.99-24.5 560.99-24.95L560.99-24.95 561.13-27.95Q561.19-28.95 561.26-30.43 561.34-31.9 561.44-33.85L561.44-33.85Q561.49-34.9 561.96-35.4 562.44-35.9 563.28-35.9L563.28-35.9Q563.88-35.9 564.24-35.8L564.24-35.8Q566.28-35.35 566.99-34.5 567.69-33.65 567.94-31.95L567.94-31.95Q567.99-31.6 567.84-30.5L567.84-30.5 566.94-22.7Q566.88-22.4 566.78-21.98 566.69-21.55 566.69-21.35L566.69-21.35Q566.69-20.9 567.19-20.75 567.69-20.6 569.03-20.65L569.03-20.65Q571.34-21.15 572.53-21.3L572.53-21.3Q572.78-21.35 573.34-21.35L573.34-21.35Q573.94-21.35 574.13-21.2L574.13-21.2Q574.34-21.1 574.46-20.63 574.59-20.15 574.59-19.55L574.59-19.55Q574.59-19 574.46-18.55 574.34-18.1 574.13-18.05L574.13-18.05Q572.78-17.65 570.94-17.4L570.94-17.4Q568.74-17 567.69-16.7L567.69-16.7Q567.13-16.55 566.59-15.95 566.03-15.35 565.99-14.85L565.99-14.85Q565.88-12.4 565.84-9.85L565.84-9.85Q565.78-7.9 565.99-5.95L565.99-5.95Q566.13-4.3 566.63-3.58 567.13-2.85 568.13-2.85L568.13-2.85Q568.94-2.85 570.44-3.4L570.44-3.4Q571.24-3.75 571.84-3.75L571.84-3.75Q572.78-3.75 573.19-2.7L573.19-2.7Q573.34-2.35 573.34-2L573.34-2Q573.34-1.35 572.86-0.95 572.38-0.55 571.59-0.25L571.59-0.25Q570.09 0.3 568.53 0.35L568.53 0.35Q566.44 0.35 564.59-0.68 562.74-1.7 561.66-3.55 560.59-5.4 560.74-7.8L560.74-7.8Q560.78-8.75 560.78-10.8L560.78-10.8Q560.78-14.05 560.53-17.4L560.53-17.4Q560.49-17.7 560.19-17.82 559.88-17.95 559.19-18.1L559.19-18.1Q558.03-18.3 557.69-18.65L557.69-18.65ZM583.08-23.3Q582.98-23 582.36-22.65 581.73-22.3 581.33-22L581.33-22 579.93-22.75Q577.88-23.85 577.13-24.5L577.13-24.5Q576.73-24.8 576.73-25.25L576.73-25.25Q576.73-25.55 576.96-25.78 577.18-26 577.63-26L577.63-26Q579.58-26 582.38-25L582.38-25Q582.68-24.95 582.93-24.33 583.18-23.7 583.08-23.3L583.08-23.3ZM578.58-14Q578.73-14.65 578.78-14.95 578.83-15.25 578.83-15.6L578.83-15.6Q578.83-16.3 579.26-16.7 579.68-17.1 580.88-17.1L580.88-17.1Q582.28-17.1 583.36-16.23 584.43-15.35 584.68-13.95L584.68-13.95Q584.83-13.25 584.88-12.4 584.93-11.55 584.93-11.3L584.93-11.3 585.63-2.75Q585.78-1.4 585.26-0.68 584.73 0.05 583.28 0.05L583.28 0.05Q582.03 0.05 581.16-0.65 580.28-1.35 580.08-2.45L580.08-2.45 578.78-13.05 578.58-14ZM600.83-3.35Q599.28-2.4 597.28-2.4L597.28-2.4Q595.08-2.4 593.05-3.53 591.03-4.65 589.83-6.75 588.63-8.85 588.83-11.55L588.83-11.55 589.08-12.75Q589.38-14.55 589.58-15.4L589.58-15.4Q590.03-17.25 591.38-18 592.73-18.75 594.98-19.2L594.98-19.2Q596.43-19.5 597.83-19.5L597.83-19.5Q602.23-19.5 605.23-16.55L605.23-16.55Q606.83-14.95 606.83-12.65L606.83-12.65Q606.83-10.4 605.18-7.8L605.18-7.8Q603.28-4.85 600.83-3.35L600.83-3.35ZM596.63-16.95Q595.83-15 594.93-12.1L594.93-12.1 594.43-10.6 594.78-10.45Q594.78-10.1 594.8-9.38 594.83-8.65 594.98-8.15L594.98-8.15Q595.53-6.6 596.23-6.25L596.23-6.25Q596.53-6.1 597.1-6.4 597.68-6.7 598.13-7.1L598.13-7.1Q598.83-7.7 600.38-9.6L600.38-9.6Q601.53-10.9 601.53-12.7L601.53-12.7Q601.53-14.25 600.65-15.5 599.78-16.75 598.23-17.2L598.23-17.2Q598.08-17.25 597.68-17.25L597.68-17.25Q596.73-17.25 596.63-16.95L596.63-16.95ZM618.73-18.85Q618.73-18.55 618.63-18.07 618.53-17.6 618.58-17.45L618.58-17.45Q622.03-18.2 624.43-18.2L624.43-18.2Q628.18-18.2 630.08-14.6L630.08-14.6Q631.63-11.55 631.63-7.85L631.63-7.85Q631.63-6.9 631.43-5.1L631.43-5.1Q631.28-3.9 630.48-3.18 629.68-2.45 628.58-2.45L628.58-2.45Q627.43-2.45 626.95-2.88 626.48-3.3 626.4-3.85 626.33-4.4 626.33-5.6L626.33-5.6 626.28-6.65Q626.18-9.65 625.88-11.85L625.88-11.85Q625.73-12.75 625.2-13.13 624.68-13.5 623.83-13.5L623.83-13.5Q623.03-13.5 621.93-13.25L621.93-13.25Q620.23-12.8 619.65-12.55 619.08-12.3 617.98-11.5L617.98-11.5Q617.63-11.25 617.48-10.5 617.33-9.75 617.33-9.65L617.33-9.65Q616.68-6.45 615.93-2L615.93-2Q615.88-1.8 615.73-1.05 615.58-0.3 615.15 0.03 614.73 0.35 613.93 0.25L613.93 0.25Q610.78-0.15 610.73-2.4L610.73-2.4Q610.68-5.3 611.18-9.25L611.18-9.25Q611.53-12.1 611.83-13.85L611.83-13.85Q611.93-14.65 612.1-15.8 612.28-16.95 612.43-18.45L612.43-18.45Q612.58-19.6 612.73-20.15 612.88-20.7 613.43-21.08 613.98-21.45 615.13-21.45L615.13-21.45Q616.58-21.45 617.53-20.8 618.48-20.15 618.73-18.95L618.73-18.95 618.73-18.85Z" opacity="1" transform="matrix(1,0,0,1,0,0)" fill="#000000" class="slogan-text-1" data-fill-palette-color="secondary" id="text-1"></path></svg></g></svg></g></svg></g></svg></g></svg></g></svg></g><g><path d="M245.816 0c68.262 0 123.6 55.338 123.6 123.6 0 68.262-55.338 123.6-123.6 123.6-57.502 0-105.832-39.266-119.641-92.448h1.618c13.77 52.308 61.391 90.883 118.023 90.883 67.398 0 122.035-54.637 122.035-122.035 0-67.398-54.637-122.035-122.035-122.035-56.631 0-104.253 38.575-118.023 90.883l-1.618 0c13.808-53.182 62.139-92.448 119.641-92.448z" fill="#000000" stroke="transparent" data-fill-palette-color="tertiary"></path></g></svg></g><defs></defs></svg><rect width="395.52" height="247.2" fill="none" stroke="none" visibility="hidden"></rect></g></svg></g></svg>